<svg width="16" height="16" viewBox="0 0 16 16" fill="none" xmlns="http://www.w3.org/2000/svg">
<g clip-path="url(#clip0_3_8)">
<circle cx="8" cy="8" r="8" fill="black"/>
<path d="M8 4.1875C8.725 4.1875 9.3125 4.775 9.3125 5.5C9.3125 6.225 8.725 6.8125 8 6.8125C7.275 6.8125 6.6875 6.225 6.6875 5.5C6.6875 4.775 7.275 4.1875 8 4.1875ZM8 9.8125C9.85625 9.8125 11.8125 10.725 11.8125 11.125V11.8125H4.1875V11.125C4.1875 10.725 6.14375 9.8125 8 9.8125ZM8 3C6.61875 3 5.5 4.11875 5.5 5.5C5.5 6.88125 6.61875 8 8 8C9.38125 8 10.5 6.88125 10.5 5.5C10.5 4.11875 9.38125 3 8 3ZM8 8.625C6.33125 8.625 3 9.4625 3 11.125V13H13V11.125C13 9.4625 9.66875 8.625 8 8.625Z" fill="white"/>
</g>
<defs>
<clipPath id="clip0_3_8">
<rect width="16" height="16" fill="white"/>
</clipPath>
</defs>
</svg>
